# xmcd
#
# Track frame offsets:
#	150
#	10943
#	20195
#	29015
#	39605
#	50608
#	60348
#	70460
#	82038
#	93413
#	105803
#	116458
#	130913
#	140325
#	150881
#	161177
#	170664
#	182836
#	192073
#	205088
#	216781
#	229043
#	243428
#	253693
#	264188
#	283426
#	296056
#	313378
#	329700
#	345887
#
# Disc length: 4737 seconds
#
# Revision: 0
# Processed by: cddbd v1.4PL0 Copyright (c) Steve Scherf et al.
# Submitted via: dBpowerAMP V4.0
#
DISCID=be127f1e
DTITLE=Beatles - Gold hits
DYEAR=1900
DGENRE=
TTITLE0=Love me do
TTITLE1=Please please me
TTITLE2=From me to you
TTITLE3=She loves you
TTITLE4=I want to hold your hand
TTITLE5=All my loving
TTITLE6=Can't buy more love
TTITLE7=A hard day's night
TTITLE8=And I love her
TTITLE9=Eight days a week
TTITLE10=I feel fine
TTITLE11=Ticket to ride
TTITLE12=Yesterday
TTITLE13=Help
TTITLE14=We can work it out
TTITLE15=Norwigian wood
TTITLE16=Michelle
TTITLE17=Long talk sadly
TTITLE18=I saw her standing there
TTITLE19=Twist and shout
TTITLE20=I should have known better
TTITLE21=Ob-la-di, Ob-la-da
TTITLE22=No reply
TTITLE23=You're going to lose that girl
TTITLE24=Hey Jude
TTITLE25=Day tripper
TTITLE26=Let it be
TTITLE27=The long and the widing road
TTITLE28=Don't let me down
TTITLE29=I'll get you
EXTD=
EXTT0=
EXTT1=
EXTT2=
EXTT3=
EXTT4=
EXTT5=
EXTT6=
EXTT7=
EXTT8=
EXTT9=
EXTT10=
EXTT11=
EXTT12=
EXTT13=
EXTT14=
EXTT15=
EXTT16=
EXTT17=
EXTT18=
EXTT19=
EXTT20=
EXTT21=
EXTT22=
EXTT23=
EXTT24=
EXTT25=
EXTT26=
EXTT27=
EXTT28=
EXTT29=
PLAYORDER=
